<svg xmlns="http://www.w3.org/2000/svg" viewBox="0 0 512 512"><defs><linearGradient id="g" x1="0" x2="1"><stop stop-color="#061c41"/><stop offset="1" stop-color="#123c74"/></linearGradient><linearGradient id="gold" x1="0" x2="1"><stop stop-color="#b98419"/><stop offset="1" stop-color="#f3d986"/></linearGradient></defs><rect width="512" height="512" rx="108" fill="url(#g)"/><path d="M90 120h332v270H90z" fill="none" stroke="url(#gold)" stroke-width="18" rx="34"/><path d="M256 138c-58 38-108 39-142 30v178c42-14 92-10 142 25 50-35 100-39 142-25V168c-34 9-84 8-142-30z" fill="#fff8e8" stroke="#d4a43b" stroke-width="10"/><path d="M256 138v233" stroke="#d4a43b" stroke-width="10"/><text x="256" y="292" text-anchor="middle" font-size="74" font-weight="700" fill="#071f46" font-family="Arial">اقرأ</text><circle cx="108" cy="110" r="11" fill="#f3d986"/><circle cx="405" cy="112" r="11" fill="#f3d986"/><path d="M256 60l18 37 41 6-30 29 7 41-36-19-36 19 7-41-30-29 41-6z" fill="url(#gold)"/></svg>
