<svg xmlns="http://www.w3.org/2000/svg" viewBox="0 0 512 512">
<defs><linearGradient id="g" x1="0" y1="0" x2="1" y2="1"><stop stop-color="#0b6b78"/><stop offset="1" stop-color="#14a6ae"/></linearGradient></defs>
<rect width="512" height="512" rx="118" fill="url(#g)"/>
<circle cx="256" cy="256" r="180" fill="none" stroke="#ffffff" stroke-opacity=".15" stroke-width="18"/>
<path d="M100 142c74-27 126-13 156 20v250c-43-38-95-51-156-28V142Zm312 0c-74-27-126-13-156 20v250c43-38 95-51 156-28V142Z" fill="#fff" fill-opacity=".98"/>
<path d="M256 162v250" stroke="#0b6b78" stroke-width="16" stroke-linecap="round"/>
<path d="M140 208c39-10 67-5 87 12M140 257c39-10 67-5 87 12M285 220c22-17 50-21 87-12M285 269c22-17 50-21 87-12" fill="none" stroke="#d8a437" stroke-width="11" stroke-linecap="round"/>
</svg>